<svg id="Layer_1" data-name="Layer 1" xmlns="http://www.w3.org/2000/svg" viewBox="0 0 750 160"><defs><style>.cls-1{fill:#fb923c;}.cls-2{fill:#ea580c;}</style></defs><path class="cls-1" d="M159.89,70.19a13.55,13.55,0,0,0-.93-4.1,20.36,20.36,0,0,0-1.67-3.3,28.69,28.69,0,0,0-2-2.82l-.51-.65-.53-.64c-.36-.4-.71-.83-1.08-1.21A60.58,60.58,0,0,0,148.69,53c-.39-.35-.78-.68-1.17-1s-.79-.66-1.18-1l-.59-.49-.6-.48c-.4-.32-.79-.63-1.22-1-1.67-1.29-3.4-2.47-5.16-3.59s-3.55-2.15-5.38-3.11-3.66-1.87-5.53-2.69-3.76-1.61-5.66-2.32a126.88,126.88,0,0,0-23.28-6.21,147.19,147.19,0,0,0-23.78-2.12,115.76,115.76,0,0,0-24,2.14q-3,.62-6,1.5a45.35,45.35,0,0,0-6,2.28A27.65,27.65,0,0,0,36,36.67l-.77.52-.74.55c-.25.19-.5.4-.74.6l-.73.67c-.24.25-.48.48-.72.75s-.46.53-.69.85a10.59,10.59,0,0,0-1.22,2,9,9,0,0,0-.73,2.51c0,.22-.06.44-.07.67s0,.44,0,.66a9,9,0,0,0,.13,1.29A9.21,9.21,0,0,0,30.44,50a10.64,10.64,0,0,0,1,1.79,14.47,14.47,0,0,0,1.19,1.44c.2.22.41.42.62.62l.63.58a24.12,24.12,0,0,0,2.61,1.94c.88.57,1.78,1.08,2.68,1.55a47.3,47.3,0,0,0,5.51,2.39A45.91,45.91,0,0,0,50.39,62c-1.58-1.19-3.12-2.38-4.61-3.62s-2.92-2.51-4.25-3.83c-.67-.65-1.3-1.33-1.9-2A22.59,22.59,0,0,1,38,50.49a10.22,10.22,0,0,1-1.07-2,4.26,4.26,0,0,1-.21-.86,1.41,1.41,0,0,1,0-.6A.65.65,0,0,1,37,46.7a3.2,3.2,0,0,1,.26-.24,7.9,7.9,0,0,1,1.12-.79l.41-.23.46-.22.48-.22.49-.19c.67-.24,1.41-.46,2.19-.67s1.6-.36,2.44-.51c.42-.08.85-.14,1.27-.21l1.3-.17c1.73-.23,3.52-.37,5.31-.48,3.59-.2,7.25-.25,10.91-.17,1.84,0,3.67.12,5.51.2.92,0,1.83.1,2.75.16l2.76.18c7.34.56,14.67,1.46,21.92,2.71a181.63,181.63,0,0,1,21.34,4.95,101,101,0,0,1,19.85,8.13c.38.2.79.45,1.18.67l1.18.7c.4.23.79.46,1.17.7s.78.48,1.16.73c1.53,1,3,2,4.4,3,.36.26.69.53,1,.8l.49.4.49.4c.65.54,1.22,1.11,1.77,1.66A14.56,14.56,0,0,1,152,69.66a7.53,7.53,0,0,1,.84,1.49,2.3,2.3,0,0,1,0,1.89,4.53,4.53,0,0,1-.44.79,6.15,6.15,0,0,1-.68.82l-.42.4c-.16.13-.3.27-.47.39a16.3,16.3,0,0,1-2.14,1.44,32.25,32.25,0,0,1-5.06,2.26,47.33,47.33,0,0,1-5.55,1.59,28.87,28.87,0,0,0,5.89.63,28.17,28.17,0,0,0,6.08-.57,17.79,17.79,0,0,0,3.11-.94,12.42,12.42,0,0,0,3.12-1.76,9.78,9.78,0,0,0,1.47-1.42A9.21,9.21,0,0,0,159,74.79a8.86,8.86,0,0,0,.73-2.27A10.24,10.24,0,0,0,159.89,70.19Z"/><path class="cls-2" d="M135.93,80.17a15.85,15.85,0,0,0-1.2-2.3,21.4,21.4,0,0,0-1.3-1.82,25.6,25.6,0,0,0-2.63-2.8,40.89,40.89,0,0,0-5.31-4c-.9-.57-1.8-1.11-2.74-1.62l-.7-.39-.71-.37c-.47-.25-1-.47-1.43-.69a48.19,48.19,0,0,0-5.85-2.29,55.62,55.62,0,0,0-5.93-1.54c-1-.2-2-.38-3-.53s-2-.27-2.94-.37c-1.91-.22-3.8-.36-5.68-.47-3.75-.21-7.48-.29-11.22-.2A108.07,108.07,0,0,0,74,61.48c-1,.1-1.92.26-2.88.41l-1.46.27-.36.06L69,62.3l-.68.15c-.9.19-1.83.41-2.74.63s-1.84.45-2.78.73a41.47,41.47,0,0,0-5.55,2,28.43,28.43,0,0,0-5.19,3A23.91,23.91,0,0,0,47.84,73L47,74.22c-.27.4-.52.81-.77,1.23l-.36.61-.33.64L44.91,78c.37-.29.72-.6,1.08-.89l.53-.44.55-.41c.38-.27.73-.55,1.1-.81l1.13-.72A23,23,0,0,1,54,72.49a26.62,26.62,0,0,1,4.87-1.12A44.29,44.29,0,0,1,63.89,71c.86,0,1.74,0,2.61,0l2.66,0h1.32l1.25,0c.86.06,1.69.1,2.56.17,3.43.27,6.94.69,10.43,1.16s7,1,10.45,1.58c1.72.28,3.43.6,5.1.93.84.17,1.64.34,2.42.54s1.58.38,2.36.6a47.31,47.31,0,0,1,8.76,3.36c.33.18.67.35,1,.54l.5.27.49.28c.65.38,1.31.8,1.94,1.22a28.1,28.1,0,0,1,3.39,2.62l.38.36-.37.2a21.43,21.43,0,0,1-3.79,1.53l-.52.16-.53.14c-.36.08-.71.18-1.09.26l-1.12.23-1.16.21c-1.57.25-3.24.46-5,.63a113.68,113.68,0,0,0-11.3,1.47,38.07,38.07,0,0,0-6.07,1.75,28.58,28.58,0,0,0-5.82,3,26,26,0,0,0-2.61,2l-1.2,1.12-1.11,1.19-.13.15-.14.17-.28.34-.55.68c-.36.47-.68,1-1,1.46l-.44.79-.21.4c-.07.13-.14.26-.2.4l-.37.83c0,.14-.12.27-.17.41l-.14.43-.28.86c-.08.29-.15.59-.22.88a15.2,15.2,0,0,0-.29,1.75c0,.15,0,.3,0,.44l0,.44,0,.44v.43l0,.86V111l0,.21,0,.42a19,19,0,0,0,1.77,6.13,26.07,26.07,0,0,0,3.17,5c.62.75,1.24,1.48,1.91,2.15a22.21,22.21,0,0,0,2.1,1.91,41.7,41.7,0,0,1-2.1-5.16,29.29,29.29,0,0,1-1.22-5.17c0-.43-.1-.85-.12-1.27,0-.21,0-.41,0-.62V114a13.5,13.5,0,0,1,.2-2.34c0-.38.16-.73.24-1.09l0-.13,0-.12.09-.26.08-.25.09-.24a8.84,8.84,0,0,1,.44-.93c.09-.15.16-.3.24-.44l.28-.41.14-.21.15-.19.31-.39a1.29,1.29,0,0,1,.16-.18l.17-.18.34-.36.38-.33.19-.17.19-.16.41-.31.2-.15.1-.08.12-.08a19.15,19.15,0,0,1,3.89-2.16,25.43,25.43,0,0,1,8.75-1.74c3.19-.15,6.64,0,10.39,0,1.87,0,3.82,0,5.85-.16l1.53-.13c.52,0,1-.12,1.57-.19s1-.17,1.58-.25l.8-.15.8-.17A32.35,32.35,0,0,0,127.1,98l.8-.36.77-.41.78-.42.19-.1.22-.13.44-.27A18,18,0,0,0,132.13,95a15,15,0,0,0,1.9-1.86,12.6,12.6,0,0,0,1.76-2.7c.13-.26.25-.55.37-.83s.21-.58.3-.88a11.63,11.63,0,0,0,.41-1.86,12.46,12.46,0,0,0-.06-3.67A13.27,13.27,0,0,0,135.93,80.17Zm-12.82,3.47-.06,0a1,1,0,0,1,.11-.13S123.19,83.56,123.11,83.64Z"/><path d="M242.07,81q-1.51,5.53-3.2,11.11t-3.39,10.85q-1.69,5.28-3.26,9.79t-2.83,7.91a10.2,10.2,0,0,1-3,1.38,16.42,16.42,0,0,1-4.39.5,14.16,14.16,0,0,1-5.14-.88,5,5,0,0,1-3-2.76,67.45,67.45,0,0,1-3.51-9.66q-2-6.66-4-14.56t-3.89-15.93q-1.89-8-3-14.06a9.74,9.74,0,0,1,2.83-2.07,8.7,8.7,0,0,1,4.08-.94q5.64,0,6.77,6.4T215.53,81q1.32,6.52,2.57,12.24t2.32,10.16c.71,3,1.24,5.21,1.57,6.72h.5q.63-2.26,1.95-6.59l3-9.91q1.7-5.59,3.7-12t4.14-12.86a13,13,0,0,1,6.9-1.76,10.54,10.54,0,0,1,4.83,1,5,5,0,0,1,2.58,2.89c1.33,4.19,2.63,8.3,3.89,12.36s2.4,7.84,3.45,11.36,2,6.61,2.76,9.28,1.4,4.77,1.82,6.28h.62q2.52-10.8,5.27-22.84t4.65-24.09a15.7,15.7,0,0,1,2.76-1.07,10.8,10.8,0,0,1,3-.44,7.27,7.27,0,0,1,4.45,1.26,4.65,4.65,0,0,1,1.7,4,33,33,0,0,1-.76,5.52q-.75,3.9-2.07,9.1c-.87,3.47-1.84,7.15-2.88,11s-2.09,7.64-3.14,11.23-2.07,6.9-3.07,9.91-1.84,5.32-2.51,6.91a9.31,9.31,0,0,1-3,1.31,16.58,16.58,0,0,1-4.52.57q-6.66,0-7.78-3.14c-.75-2-1.63-4.47-2.64-7.4s-2-6.09-3.13-9.48-2.18-6.92-3.27-10.6S243.07,84.58,242.07,81Z"/><path d="M349,92.28a37,37,0,0,1-2.14,12.92,28.1,28.1,0,0,1-6,9.79,25.88,25.88,0,0,1-9.35,6.21,35.46,35.46,0,0,1-24.59,0,25.88,25.88,0,0,1-9.35-6.21,28.1,28.1,0,0,1-6-9.79,37.05,37.05,0,0,1-2.13-12.92,37.15,37.15,0,0,1,2.13-12.93,27.69,27.69,0,0,1,6-9.78,26.67,26.67,0,0,1,9.42-6.22,34.91,34.91,0,0,1,24.34,0,26.24,26.24,0,0,1,9.41,6.28,28.37,28.37,0,0,1,6,9.79A36.55,36.55,0,0,1,349,92.28ZM319.24,71.7a14.54,14.54,0,0,0-11.92,5.4q-4.4,5.39-4.4,15.18t4.27,15.12q4.26,5.34,12.05,5.33t12-5.33q4.28-5.34,4.27-15.12t-4.33-15.12Q326.89,71.7,319.24,71.7Z"/><path d="M372.44,121.39a13,13,0,0,1-2.45.69,17.49,17.49,0,0,1-3.45.31q-3.63,0-5.39-1.38c-1.18-.92-1.76-2.46-1.76-4.64V75.21a9.21,9.21,0,0,1,1.26-5.08,12.76,12.76,0,0,1,4-3.7A34.3,34.3,0,0,1,374,62.67a47.82,47.82,0,0,1,12.42-1.51q11,0,11,6.27a8,8,0,0,1-.5,2.83,13.92,13.92,0,0,1-1.13,2.32c-.84-.17-1.88-.33-3.14-.5a29.86,29.86,0,0,0-4-.25,36.74,36.74,0,0,0-9.16,1.06,28.82,28.82,0,0,0-7,2.7Z"/><path d="M415.42,122.08a17.63,17.63,0,0,1-3.45.31q-3.64,0-5.4-1.38c-1.17-.92-1.76-2.46-1.76-4.64V40.21c.59-.17,1.42-.38,2.51-.63a15.7,15.7,0,0,1,3.52-.38q3.63,0,5.33,1.38t1.69,4.64v42l25.85-25.47a10.85,10.85,0,0,1,6.34,1.88,5.42,5.42,0,0,1,2.32,4.52,6,6,0,0,1-1.51,4,44.67,44.67,0,0,1-4.39,4.27L429.78,91.15l25.85,23.59a10,10,0,0,1-2.19,5.71,6.43,6.43,0,0,1-5.09,2.07,8,8,0,0,1-4.45-1.26,21.41,21.41,0,0,1-4.2-3.76L417.86,94.41v27A12.91,12.91,0,0,1,415.42,122.08Z"/><path d="M477.21,66.55h23.72a9.13,9.13,0,0,1,.94,2.08,9.75,9.75,0,0,1,.44,3.07q0,5.26-4.77,5.27h-20v44.42a12.91,12.91,0,0,1-2.44.69,17.66,17.66,0,0,1-3.46.31q-3.63,0-5.39-1.38c-1.17-.92-1.76-2.46-1.76-4.64V59.15a26.09,26.09,0,0,1,1.7-9.91,17.11,17.11,0,0,1,4.83-6.78,20.23,20.23,0,0,1,7.59-3.89,36.52,36.52,0,0,1,9.85-1.25q7.77,0,11.92,2c2.76,1.33,4.14,3.22,4.14,5.64a6.57,6.57,0,0,1-.69,3.08,9.68,9.68,0,0,1-1.69,2.32,35.75,35.75,0,0,0-5.53-1.76,27.37,27.37,0,0,0-6.39-.75q-7,0-10,2.76t-3,9Zm46.18,55.84c-2.43,0-4.22-.46-5.39-1.38s-1.76-2.46-1.76-4.64V40.21c.58-.17,1.42-.38,2.51-.63a15.61,15.61,0,0,1,3.51-.38q3.65,0,5.4,1.38t1.75,4.64v76.17a17.06,17.06,0,0,1-2.57.69A17.56,17.56,0,0,1,523.39,122.39Z"/><path d="M565.55,61.16q11.67,0,18.57,5.08t6.9,16v29.24a6.71,6.71,0,0,1-1.31,4.45,14.35,14.35,0,0,1-3.58,2.95,35.58,35.58,0,0,1-8.41,3.26,46.21,46.21,0,0,1-11.92,1.38q-12.16,0-19-4.77t-6.84-14q0-8.28,5.34-12.67t15.37-5.4l17.44-1.75V82.11c0-3.68-1.19-6.35-3.58-8s-5.71-2.51-10-2.51A33.33,33.33,0,0,0,554.89,73a55.6,55.6,0,0,0-8.29,3.13,9.36,9.36,0,0,1-2.13-2.45,6,6,0,0,1-.88-3.2,5.58,5.58,0,0,1,1.07-3.51A8.44,8.44,0,0,1,548,64.55,29.88,29.88,0,0,1,556,62,53.87,53.87,0,0,1,565.55,61.16Zm.25,52.07a29.5,29.5,0,0,0,7.66-.88,14.79,14.79,0,0,0,4.64-1.88V94.54l-13.68,1.38c-3.85.42-6.73,1.27-8.66,2.57a6.7,6.7,0,0,0-2.88,6,7.56,7.56,0,0,0,3.14,6.46Q559.16,113.23,565.8,113.23Z"/><path d="M617.12,121.39a13,13,0,0,1-2.45.69,17.49,17.49,0,0,1-3.45.31q-3.63,0-5.39-1.38c-1.17-.92-1.76-2.46-1.76-4.64V75.21a9.21,9.21,0,0,1,1.26-5.08,12.76,12.76,0,0,1,4-3.7,34.3,34.3,0,0,1,9.29-3.76,47.82,47.82,0,0,1,12.42-1.51q11,0,11,6.27a8,8,0,0,1-.5,2.83,13.92,13.92,0,0,1-1.13,2.32c-.84-.17-1.88-.33-3.14-.5a29.86,29.86,0,0,0-4-.25,36.74,36.74,0,0,0-9.16,1.06,28.82,28.82,0,0,0-7,2.7Z"/><path d="M657.9,98.93q1.76,7.16,6.84,10.6t13,3.45a27.51,27.51,0,0,0,9.66-1.63,30.77,30.77,0,0,0,7-3.51,6.23,6.23,0,0,1,3.51,5.64,5.86,5.86,0,0,1-1.63,4,13.64,13.64,0,0,1-4.46,3.13,28.79,28.79,0,0,1-6.65,2.07,41.91,41.91,0,0,1-8.22.76,41.19,41.19,0,0,1-13.23-2,27.55,27.55,0,0,1-10.23-6,26.88,26.88,0,0,1-6.59-9.92,37.11,37.11,0,0,1-2.32-13.67,35.76,35.76,0,0,1,2.26-13.24A27.13,27.13,0,0,1,653,69a26.23,26.23,0,0,1,9.16-5.83,31.41,31.41,0,0,1,11.29-2,30,30,0,0,1,11,1.94A25.65,25.65,0,0,1,693,68.5a23.54,23.54,0,0,1,5.52,8.22,27.25,27.25,0,0,1,2,10.41c0,2.1-.5,3.62-1.51,4.58a8.14,8.14,0,0,1-4.39,2Zm15.56-27.61A15.44,15.44,0,0,0,662,76q-4.58,4.64-4.83,13.3L688,84.88a15.87,15.87,0,0,0-4.14-9.6Q680.24,71.32,673.46,71.32Z"/></svg>